<svg width="512" height="512" viewBox="0 0 512 512" fill="none" xmlns="http://www.w3.org/2000/svg">
<g clip-path="url(#clip0_603_221)">
<path d="M390.656 175.893C416.725 158.763 433.984 129.237 433.984 95.7867C433.984 42.9653 390.997 0 338.176 0H173.824C121.002 0 78.0156 42.9653 78.0156 95.7867C78.0156 129.237 95.2743 158.763 121.344 175.893C95.2743 193.024 78.0156 222.549 78.0156 256C78.0156 289.451 95.2743 318.976 121.344 336.107C95.2743 353.216 78.0156 382.741 78.0156 416.213C78.0156 469.035 121.216 512 174.336 512C228.01 512 271.701 468.565 271.701 415.168V326.827C288.725 342.336 311.338 351.787 336.106 351.787H338.176C390.997 351.787 433.984 308.821 433.984 256C433.984 222.549 416.725 193.024 390.656 175.893ZM271.68 31.3813H338.176C373.696 31.3813 402.602 60.2667 402.602 95.7867C402.602 131.307 373.696 160.213 338.176 160.213H271.68V31.3813ZM109.397 95.7867C109.397 60.2667 138.304 31.3813 173.824 31.3813H240.32V160.213H173.824C138.304 160.213 109.397 131.307 109.397 95.7867ZM109.397 256C109.397 220.48 138.304 191.595 173.824 191.595H240.32V320.427H173.418C138.09 320.192 109.397 291.371 109.397 256ZM240.32 415.168C240.32 451.264 210.709 480.619 174.336 480.619C138.538 480.619 109.397 451.733 109.397 416.213C109.397 380.693 138.304 351.787 173.824 351.787H240.32V415.168ZM338.176 320.427H336.106C300.586 320.427 271.701 291.52 271.701 256C271.701 220.48 300.586 191.595 336.106 191.595H338.176C373.696 191.595 402.602 220.48 402.602 256C402.602 291.52 373.696 320.427 338.176 320.427Z" fill="white"/>
</g>
<defs>
<clipPath id="clip0_603_221">
<rect width="512" height="512" fill="white"/>
</clipPath>
</defs>
</svg>
